P3
4 4
15
11 0 1 	9 0 4 	4 0 9 	0 0 11 	
9 0 4 	9 0 6 	5 0 10 	0 0 13 	
4 0 9 	5 0 10 	4 0 11 	0 0 13 	
0 0 11 	0 0 13 	0 0 13 	0 0 12 	
