P2
24 7
15
0 0 0 0 0 0 0 0 0 0 0 0 0 1 1 1 1 0 0 1 1 1 1 0 
0 2 2 2 2 0 0 5 5 5 4 0 1 8 8 8 7 1 1 12 12 12 12 1 
0 2 0 0 0 0 0 5 2 1 0 0 1 8 3 2 1 0 1 12 4 4 12 1 
0 2 2 2 0 0 0 6 5 4 0 0 1 9 8 7 1 0 1 13 12 12 12 1 
0 2 0 0 0 0 0 5 2 1 0 0 1 8 3 2 1 0 1 12 3 1 1 0 
0 2 0 0 0 0 0 5 5 5 4 0 1 8 8 8 7 1 1 10 1 0 0 0 
0 0 0 0 0 0 0 0 0 0 0 0 0 1 1 1 1 0 0 1 0 0 0 0 
